<?xml version="1.0" encoding="utf-8"?>
<!-- Generator: Adobe Illustrator 27.0.0, SVG Export Plug-In . SVG Version: 6.00 Build 0)  -->
<svg version="1.1" id="_Шар_2" xmlns="http://www.w3.org/2000/svg" xmlns:xlink="http://www.w3.org/1999/xlink" x="0px" y="0px"
	 viewBox="0 0 384.5 172.9" style="enable-background:new 0 0 384.5 172.9;" xml:space="preserve">
<style type="text/css">
	.st0{fill:#DD0500;stroke:#DD0500;stroke-miterlimit:10;}
	.st1{fill:#001C82;stroke:#FFFFFF;stroke-miterlimit:10;}
	.st2{fill:#001C82;}
	.st3{font-family:'BookmanOldStyle';}
	.st4{font-size:12.5509px;}
</style>
<path class="st0" d="M65.3,103.2c-2.7,0-5.3-0.3-7.6-0.9c-1.8-0.5-3.7-1.3-5.6-2.3l-1.2,2.5h-7.6l-4-19.9l8.8-1.9
	c-1.1-0.6-2.1-1.2-2.9-1.9c-1.3-1.1-2.4-2.5-3.2-4.2c-0.9-1.7-1.3-3.5-1.3-5.4c0-2.7,0.8-5.2,2.5-7.4c1.6-2.2,4-4,7.2-5.3
	c3.1-1.3,6.5-2,10.2-2c3.9,0,7.6,0.8,10.8,2.4l1-1.7h7.2l5,17.5l-8,2c2.4,1.1,4.3,2.3,5.7,3.7c2.5,2.6,3.8,5.6,3.8,9
	c0,4.3-1.9,8-5.7,10.9C76.2,101.6,71.2,103.2,65.3,103.2L65.3,103.2z M49.2,81.7c1.4,3.2,3.6,5.9,6.6,8c3,2.1,6.2,3.2,9.7,3.2
	c1.6,0,2.8-0.2,3.8-0.5c0.9-0.3,1.5-0.7,1.9-1.2c0.3-0.4,0.5-0.8,0.5-1.2c0-0.4-0.1-1.1-1.3-1.9c-0.8-0.5-2.7-1.4-6.7-2.5l-8.2-2.1
	c-1.3-0.3-3-0.9-5.2-1.9c-0.5-0.2-1-0.4-1.5-0.7L49.2,81.7L49.2,81.7z M59.7,64.8c-1.7,0-3,0.3-3.8,0.9c-0.6,0.4-1,0.8-1,1.1
	c0,0.2,0,0.8,1,1.6c0.6,0.5,1.9,1.2,5,2l9.4,2.5c1.5,0.4,2.8,0.8,4.1,1.2c-2-3.2-4.3-5.6-6.7-7C65.2,65.5,62.5,64.8,59.7,64.8
	L59.7,64.8z M318.8,102.4v-9.3l3-0.1c1.1,0,1.6-0.1,1.8-0.2c-0.1-0.3-0.2-0.7-0.5-1.5l-1.1-2.9h-12.6l-1.4,3.4
	c-0.2,0.5-0.3,0.8-0.4,1c0.1,0,0.2,0.1,0.3,0.1c0.1,0,0.6,0.1,3,0.1h1.6v9.4h-46.8v-9.4h2.6c0.6,0,1,0,1.4,0l-7.5-9.6l-5.5,4.3v3.6
	c0,1.1,0.1,1.5,0.2,1.5c0.1,0.1,0.1,0.1,0.2,0.2c0,0,0.4,0.1,2,0.1h3.6v9.4h-27.1v-9.4h3.4c1.7,0,2.1-0.2,2.1-0.2
	c0.1-0.1,0.2-0.1,0.2-0.2c0,0,0.1-0.4,0.1-1.9v-24c0-1.5-0.2-1.9-0.2-1.9c0-0.1-0.1-0.1-0.2-0.2c0,0-0.4-0.2-1.8-0.2h-3.7h-1
	c-2,0-2.7,0.3-2.9,0.4c-0.2,0.1-0.8,0.5-1.9,1.9l-12.7,16.6v7.3c0,1.5,0.1,2,0.2,2c0,0,0.1,0.1,0.2,0.1c0,0,0.5,0.2,2.2,0.2h3.4v9.4
	h-27.1v-9.4h2.9c2,0,2.5-0.2,2.6-0.2c0.1,0,0.2-0.1,0.2-0.3c0,0,0.2-0.4,0.2-2.1v-6.3l-12.6-17.3c-1.2-1.6-1.8-2-2-2.1l0,0
	c0,0-0.6-0.2-2.6-0.2h-1.6v-9.4h27.5v9.4h-3.5c-0.4,0-0.8,0-1,0c0.1,0.2,0.3,0.6,0.6,1l5.1,7.6c0,0,6-8.4,6.1-8.6
	c-0.1,0-4.3,0-4.3,0v-9.4h49.2v9.4h-3.2c-1.7,0-2.2,0.1-2.2,0.1c-0.1,0-0.3,0.1-0.3,0.3l0,0c0,0-0.1,0.3-0.1,1.5v8.2l12.1-10.1h-3.1
	v-9.4h25.3v9.4h-2.4c-1.3,0-1.7,0.1-1.8,0.1c-0.1,0-0.5,0.1-1,0.4c-0.5,0.3-1.2,0.7-2,1.4l-10.4,8.1l13,15.8c1.5,1.8,2,2.1,2.1,2.2
	c0.4,0.2,1.1,0.4,2.5,0.4h0.9c1.4,0,2-0.1,2.1-0.2c0.3-0.1,0.5-0.3,0.7-0.4c0.1-0.1,0.4-0.4,0.9-1.6l15.5-35.5h13.1l15.1,34.9
	c1,2.2,1.5,2.6,1.5,2.6c0,0,0.5,0.3,2.2,0.3h1.9v9.4L318.8,102.4L318.8,102.4z M318.3,78.9l-2.3-6l-2.5,6H318.3z M160,102.4v-9.3
	l3-0.1c1.1,0,1.6-0.1,1.8-0.2c-0.1-0.3-0.2-0.7-0.5-1.5l-1.1-2.9h-12.6l-1.4,3.4c-0.2,0.5-0.3,0.8-0.4,1c0.1,0,0.2,0.1,0.3,0.1
	c0.1,0,0.6,0.1,3,0.1h1.6v9.4h-22.2v-9.4h1.6c1.4,0,2-0.1,2.1-0.2c0.3-0.1,0.5-0.3,0.7-0.4c0.1-0.1,0.4-0.4,0.9-1.6l15.5-35.5h13.1
	l15.1,34.9c1,2.2,1.5,2.6,1.5,2.6c0,0,0.5,0.3,2.2,0.3h1.9v9.4L160,102.4L160,102.4z M159.4,78.9l-2.3-6l-2.5,6H159.4z M87.2,102.4
	v-9.4h3.3c1.8,0,2.2-0.2,2.3-0.2c0.1-0.1,0.2-0.1,0.2-0.1l0,0c0,0,0.1-0.4,0.1-1.8V66.9c0-1.5-0.1-2-0.2-2c-0.1-0.1-0.5-0.3-1.7-0.3
	h-4v-9.4h27.4c3.4,0,6.3,0.3,8.6,0.9c2.4,0.7,4.4,1.7,6.1,3c1.7,1.4,3.1,3,4,4.9c0.9,1.9,1.4,3.9,1.4,6c0,4.3-1.8,7.9-5.4,10.7
	C125.8,83.6,121,85,115,85h-6.7v6.6c0,1,0.1,1.2,0.1,1.3l0,0c0,0,0,0,0.1,0.1c0,0,0.3,0.1,1.5,0.1h4.1v9.4L87.2,102.4L87.2,102.4z
	 M110.9,74.9c2.9,0,4.3-0.3,5-0.6c0.9-0.4,1.6-0.9,2.1-1.6c0.5-0.7,0.8-1.5,0.8-2.5c0-1.5-0.6-2.6-1.9-3.4c-1-0.7-2.6-1-4.8-1h-3.8
	v9.2L110.9,74.9L110.9,74.9z"/>
<path class="st1" d="M78.2,56.9l4.2,14.7l-6.5,1.7c-2.2-3.5-4.6-6.1-7.4-7.7c-2.7-1.6-5.7-2.4-8.8-2.4c-2,0-3.6,0.4-4.7,1.1
	c-1.2,0.7-1.7,1.5-1.7,2.5c0,1,0.5,2,1.6,2.9c1,0.9,2.9,1.7,5.7,2.4l9.4,2.5c5.2,1.3,8.9,3.1,11.1,5.4c2.2,2.2,3.3,4.9,3.3,7.8
	c0,3.8-1.7,7-5,9.6c-3.8,2.9-8.4,4.4-14,4.4c-2.6,0-5-0.3-7.1-0.9c-2.2-0.6-4.4-1.6-6.8-3l-1.5,3.2h-5.2l-3.5-17l6.5-1.4
	c1.5,3.5,3.9,6.3,7.2,8.7c3.2,2.3,6.8,3.5,10.7,3.5c1.7,0,3.2-0.2,4.4-0.6c1.2-0.4,2-0.9,2.6-1.7c0.6-0.7,0.9-1.5,0.9-2.2
	c0-1.3-0.7-2.3-2-3.2c-1.4-0.9-3.8-1.8-7.2-2.7L56.1,82c-1.2-0.3-2.9-0.9-5-1.8c-2.1-0.9-3.7-1.8-4.9-2.7c-1.1-0.9-2.1-2.1-2.8-3.6
	c-0.8-1.5-1.1-3-1.1-4.7c0-2.3,0.7-4.5,2.1-6.4c1.4-2,3.6-3.5,6.5-4.8c2.9-1.2,6.1-1.8,9.6-1.8c4.2,0,8,1,11.4,3l1.4-2.2L78.2,56.9
	L78.2,56.9z M88.8,56.9h25.8c3.3,0,6,0.3,8.1,0.9c2.1,0.6,4,1.5,5.6,2.7c1.5,1.2,2.7,2.6,3.6,4.3c0.8,1.7,1.3,3.4,1.3,5.3
	c0,3.8-1.6,6.9-4.8,9.4c-3.2,2.5-7.6,3.8-13.3,3.8h-8.3v8.2c0,1,0.1,1.7,0.3,2c0.2,0.4,0.5,0.7,1,0.9c0.4,0.2,1.2,0.3,2.2,0.3h2.5
	v6.1H88.8v-6.1h1.6c1.5,0,2.4-0.1,2.9-0.3c0.5-0.2,0.8-0.5,1-0.9s0.3-1.3,0.3-2.5V66.9c0-1.3-0.1-2.2-0.3-2.6
	c-0.2-0.4-0.5-0.7-0.9-0.9c-0.4-0.2-1.2-0.3-2.3-0.3h-2.4L88.8,56.9L88.8,56.9z M106.7,64.1v12.5h4.2c2.5,0,4.4-0.2,5.6-0.7
	c1.2-0.5,2.1-1.2,2.9-2.2c0.7-1,1.1-2.1,1.1-3.5c0-2-0.9-3.6-2.6-4.8c-1.3-0.9-3.2-1.3-5.7-1.3L106.7,64.1L106.7,64.1z M153.6,56.9
	h10.9l14.6,33.9c0.8,1.8,1.5,2.9,2.1,3.3c0.6,0.4,1.8,0.6,3.4,0.6v6.1h-23.1v-6.1l1.4,0c1.3,0,2.2-0.2,2.7-0.5
	c0.5-0.3,0.8-0.7,0.8-1.1c0-0.4-0.2-1.2-0.7-2.3l-1.5-4h-14.8l-1.8,4.4c-0.4,0.9-0.6,1.6-0.6,1.9c0,0.3,0.1,0.6,0.4,0.9
	c0.3,0.3,0.7,0.5,1.3,0.6c0.4,0.1,1.5,0.1,3.3,0.1v6.1h-18.9v-6.1c1.2,0,2.1-0.1,2.6-0.3s1-0.5,1.4-0.9c0.4-0.4,0.8-1.1,1.2-2.1
	L153.6,56.9L153.6,56.9z M152.1,80.5h9.7l-4.7-12L152.1,80.5L152.1,80.5z M184.8,56.9H209V63h-1.8c-1.3,0-2.1,0.1-2.4,0.3
	c-0.3,0.2-0.5,0.5-0.5,0.9c0,0.5,0.4,1.4,1.1,2.5l6.4,9.5l7.1-9.9c0.6-0.9,1-1.3,1-1.5c0.1-0.2,0.1-0.5,0.1-0.7
	c0-0.3-0.1-0.6-0.4-0.8c-0.3-0.2-0.9-0.3-1.9-0.3h-2.5v-6.1h19.4V63c-1.7,0-2.9,0.2-3.6,0.5c-0.7,0.3-1.5,1.1-2.5,2.4l-13,17v7.8
	c0,1.4,0.1,2.3,0.3,2.7c0.2,0.4,0.5,0.7,1,0.9c0.5,0.2,1.4,0.3,2.8,0.3h1.7v6.1h-23.8v-6.1h1.3c1.7,0,2.7-0.1,3.2-0.3
	c0.5-0.2,0.8-0.5,1.1-1c0.3-0.5,0.4-1.4,0.4-2.8v-6.8l-13-17.8c-1-1.4-1.9-2.3-2.7-2.6c-0.6-0.2-1.7-0.3-3.3-0.3L184.8,56.9
	L184.8,56.9z M237.5,56.9h23.8V63h-1.6c-1.5,0-2.5,0.1-2.8,0.2c-0.6,0.2-1,0.6-1.2,1c-0.3,0.4-0.4,1.2-0.4,2.4v11.7l15.2-12.7
	c0.7-0.6,1.1-0.9,1.2-1.1c0.1-0.2,0.2-0.4,0.2-0.5c0-0.3-0.1-0.5-0.4-0.7c-0.3-0.2-0.9-0.2-2-0.2h-2v-6.1h22V63h-0.7
	c-1,0-1.7,0-2.1,0.1c-0.4,0.1-0.9,0.3-1.5,0.6c-0.6,0.3-1.3,0.8-2.2,1.5l-11.8,9.2l14,17.1c1.2,1.5,2.1,2.3,2.6,2.6
	c0.8,0.4,1.8,0.6,3.2,0.6h0.9v6.1h-24.6v-6.1h1c1.8,0,2.9-0.1,3.3-0.2c0.4-0.2,0.6-0.3,0.6-0.6c0-0.3-0.4-0.9-1.1-1.8l-8.6-11
	l-7.4,5.8v4.4c0,1.1,0.1,1.8,0.3,2.3c0.2,0.4,0.6,0.7,1,0.9c0.4,0.2,1.3,0.3,2.6,0.3h2v6.1h-23.8v-6.1h1.8c1.4,0,2.3-0.1,2.8-0.3
	c0.5-0.2,0.8-0.5,1-1c0.2-0.3,0.3-1.2,0.3-2.6V67c0-1.3-0.1-2.2-0.3-2.6c-0.2-0.4-0.6-0.8-1-1c-0.5-0.2-1.3-0.3-2.5-0.3h-2
	L237.5,56.9L237.5,56.9z M312.4,56.9h10.9L338,90.8c0.8,1.8,1.5,2.9,2.1,3.3c0.6,0.4,1.8,0.6,3.4,0.6v6.1h-23.1v-6.1l1.4,0
	c1.3,0,2.2-0.2,2.7-0.5c0.5-0.3,0.8-0.7,0.8-1.1c0-0.4-0.2-1.2-0.7-2.3l-1.5-4h-14.8l-1.8,4.4c-0.4,0.9-0.6,1.6-0.6,1.9
	c0,0.3,0.1,0.6,0.4,0.9s0.7,0.5,1.3,0.6c0.4,0.1,1.5,0.1,3.3,0.1v6.1h-18.9v-6.1c1.2,0,2.1-0.1,2.6-0.3c0.6-0.2,1-0.5,1.4-0.9
	c0.4-0.4,0.8-1.1,1.2-2.1L312.4,56.9L312.4,56.9z M311,80.5h9.7l-4.7-12L311,80.5L311,80.5z"/>
<text transform="matrix(1 0 0 1 116.5435 130.2999)" class="st2 st3 st4">AIR CARGO SOLUTIONS</text>
</svg>
