<?xml version="1.0" encoding="UTF-8"?>
<svg id="_Шар_1" data-name="Шар 1" xmlns="http://www.w3.org/2000/svg" xmlns:xlink="http://www.w3.org/1999/xlink" viewBox="0 0 153.3 172.94">
  <defs>
    <style>
      .cls-1 {
        fill: #fff;
      }

      .cls-2 {
        fill: #dd0500;
      }

      .cls-3 {
        fill: #001c82;
      }

      .cls-4 {
        clip-path: url(#clippath);
      }

      .cls-5 {
        fill: #fefefd;
      }
    </style>
    <clipPath id="clippath">
      <path class="cls-1" d="M76.59,0l75.19,18.98c3.15,21.33,1.03,49.14-2.92,64.89-2.45,9.78-8.71,29.23-13.95,37.84-10.09,16.56-34.17,40.09-58.27,51.22-24.79-11.66-48.53-34.47-58.32-51.22-5.09-8.71-11.82-27.99-14-37.83C.81,68.04-1.68,40.86,1.38,19.05L76.59,0Z"/>
    </clipPath>
  </defs>
  <g>
    <g>
      <path class="cls-1" d="M76.59,0l75.19,18.98c3.15,21.33,1.03,49.14-2.92,64.89-2.45,9.78-8.71,29.23-13.95,37.84-10.09,16.56-34.17,40.09-58.27,51.22-24.79-11.66-48.53-34.47-58.32-51.22-5.09-8.71-11.82-27.99-14-37.83C.81,68.04-1.68,40.86,1.38,19.05L76.59,0Z"/>
      <g class="cls-4">
        <g>
          <path class="cls-3" d="M35.3,93.63l1.52,5.33-2.36,.6c-.78-1.27-1.67-2.2-2.66-2.79s-2.05-.89-3.17-.89c-.72,0-1.29,.13-1.71,.4-.42,.27-.62,.56-.62,.89,0,.37,.19,.72,.57,1.04,.37,.32,1.05,.6,2.05,.85l3.39,.89c1.88,.49,3.22,1.13,4.02,1.94,.79,.81,1.19,1.76,1.19,2.84,0,1.37-.61,2.54-1.82,3.48-1.36,1.05-3.04,1.57-5.06,1.57-.94,0-1.8-.11-2.58-.32-.78-.22-1.6-.58-2.45-1.09l-.56,1.14h-1.88l-1.25-6.16,2.36-.51c.56,1.25,1.42,2.3,2.6,3.13,1.18,.84,2.47,1.26,3.88,1.26,.63,0,1.16-.07,1.57-.22,.42-.14,.73-.35,.94-.6,.21-.26,.32-.52,.32-.8,0-.45-.24-.85-.73-1.17-.5-.33-1.37-.65-2.6-.97l-2.95-.77c-.45-.11-1.05-.33-1.81-.64-.76-.31-1.35-.64-1.76-.98-.41-.34-.75-.78-1.02-1.31-.27-.53-.4-1.1-.4-1.69,0-.84,.26-1.62,.78-2.33,.52-.71,1.3-1.28,2.34-1.72,1.04-.44,2.19-.66,3.46-.66,1.53,0,2.9,.36,4.13,1.07l.49-.8h1.81Z"/>
          <path class="cls-3" d="M39.14,93.63h9.33c1.18,0,2.16,.11,2.94,.32,.78,.22,1.45,.54,2.01,.98,.56,.44,.99,.96,1.3,1.57,.3,.6,.46,1.24,.46,1.92,0,1.36-.58,2.5-1.74,3.41-1.16,.92-2.76,1.38-4.8,1.38h-3.01v2.97c0,.37,.03,.61,.09,.71,.08,.14,.19,.25,.35,.32,.16,.07,.42,.1,.79,.1h.9v2.2h-8.61v-2.2h.6c.53,0,.87-.03,1.04-.1s.29-.18,.37-.32c.08-.15,.11-.45,.11-.92v-8.73c0-.49-.03-.81-.1-.96-.07-.16-.18-.27-.32-.34-.15-.07-.43-.11-.85-.11h-.85v-2.2Zm6.49,2.59v4.51h1.5c.92,0,1.59-.09,2.02-.26,.43-.17,.78-.43,1.04-.78,.26-.35,.39-.77,.39-1.26,0-.73-.31-1.3-.94-1.73-.46-.32-1.15-.48-2.06-.48h-1.96Z"/>
          <path class="cls-3" d="M62.58,93.63h3.96l5.29,12.26c.29,.65,.54,1.05,.76,1.21,.22,.15,.63,.22,1.23,.22v2.2h-8.34v-2.2h.51c.46-.01,.79-.07,.97-.18,.19-.11,.28-.24,.28-.4,0-.14-.08-.42-.24-.84l-.53-1.44h-5.36l-.66,1.6c-.14,.34-.2,.57-.2,.67,0,.12,.05,.23,.14,.33s.25,.17,.47,.22c.14,.03,.54,.05,1.19,.05v2.2h-6.83v-2.2c.44,0,.76-.03,.96-.1s.37-.17,.5-.31c.13-.14,.28-.39,.44-.76l5.45-12.51Zm-.53,8.55h3.5l-1.71-4.36-1.8,4.36Z"/>
          <path class="cls-3" d="M73.87,93.63h8.76v2.2h-.66c-.46,0-.75,.03-.87,.1-.12,.06-.18,.17-.18,.31,0,.2,.13,.49,.4,.89l2.32,3.44,2.58-3.59c.23-.31,.35-.48,.38-.52,.03-.08,.05-.17,.05-.25,0-.13-.05-.22-.15-.28s-.32-.09-.68-.09h-.9v-2.2h7.03v2.2c-.62,0-1.05,.07-1.3,.19-.25,.12-.55,.41-.89,.88l-4.7,6.17v2.83c0,.5,.04,.82,.11,.97,.07,.15,.19,.26,.37,.33,.17,.07,.52,.11,1.02,.11h.62v2.2h-8.61v-2.2h.47c.61,0,.99-.04,1.16-.11,.17-.07,.3-.19,.39-.36,.09-.17,.13-.51,.13-1.03v-2.48l-4.69-6.43c-.37-.5-.7-.82-.97-.94-.2-.08-.6-.13-1.2-.13v-2.2Z"/>
          <path class="cls-3" d="M92.94,93.63h8.61v2.2h-.57c-.55,0-.89,.03-1.01,.08-.2,.08-.35,.2-.44,.35-.09,.15-.13,.44-.13,.85v4.23l5.5-4.59c.24-.2,.39-.34,.44-.41,.05-.07,.08-.13,.08-.19,0-.11-.05-.19-.15-.24-.1-.05-.34-.08-.74-.08h-.71v-2.2h7.98v2.2h-.27c-.37,0-.63,.02-.77,.05-.14,.03-.32,.11-.52,.22-.21,.11-.47,.3-.8,.56l-4.26,3.32,5.08,6.18c.44,.53,.76,.85,.96,.94,.27,.14,.66,.21,1.16,.21h.34v2.2h-8.9v-2.2h.35c.65,0,1.04-.03,1.18-.08,.14-.05,.21-.12,.21-.2,0-.09-.13-.31-.39-.65l-3.1-3.98-2.67,2.08v1.6c0,.39,.04,.66,.13,.82s.2,.26,.36,.32,.47,.1,.94,.1h.72v2.2h-8.61v-2.2h.65c.5,0,.84-.04,1-.11,.17-.07,.29-.19,.37-.35,.07-.13,.1-.44,.1-.93v-8.67c0-.47-.04-.79-.11-.94-.08-.16-.2-.28-.37-.36-.17-.08-.47-.12-.92-.12h-.72v-2.2Z"/>
          <path class="cls-3" d="M120.07,93.63h3.96l5.29,12.26c.29,.65,.54,1.05,.76,1.21,.22,.15,.63,.22,1.23,.22v2.2h-8.34v-2.2h.51c.46-.01,.79-.07,.97-.18,.19-.11,.28-.24,.28-.4,0-.14-.08-.42-.24-.84l-.53-1.44h-5.36l-.66,1.6c-.14,.34-.2,.57-.2,.67,0,.12,.05,.23,.14,.33s.25,.17,.47,.22c.14,.03,.54,.05,1.19,.05v2.2h-6.83v-2.2c.44,0,.76-.03,.96-.1s.37-.17,.5-.31c.13-.14,.28-.39,.44-.76l5.45-12.51Zm-.53,8.55h3.5l-1.71-4.36-1.8,4.36Z"/>
        </g>
      </g>
    </g>
    <path class="cls-3" d="M148.69,21.84c-2.84-.61-72.1-18.18-72.1-18.18L4.55,21.9c-2.32,17.55-1.85,35.36,1.37,52.76,6.12-10.84,18.9-17.5,29.86-22.4,1.38-.61,2.79-1.16,4.19-1.74,.73-.31,1.47-.6,2.22-.87,1.67-.6,6.02-2.2,6.02-2.2,0,0-7.92,.49-11.81,.82-1.3,.11-3.43-.88-3.28-2.17,0,0,0-.02,0-.02,0,0,44.46-17.04,53.28-20.38,3.88-1.47,10.31-4.2,14.03-4.96,.72,.28,1.54,.54,2.28,.79,3.45-.99,7.24-3.31,10.97-1.96,1.68,.61,2.45,2.24,1.57,3.85-2.98,5.44-10.8,7.7-16.26,9.63-2.66,.93-5.3,1.89-7.94,2.87l-3.42,6.13-2.76,.95c.67-1.22,3.39-6.12,3.39-6.12-2.52,.9-9.23,3.32-9.23,3.32-.19,1.69-.42,3.46-.53,5.15l-2.1,.84c.14-1.73,.29-3.47,.47-5.2-10.28,3.57-21.11,8.45-29.8,15.08-.6,.46-2.85,2.41-3.25,2.91-1.16,1.46-1.91,2.03-2.96,3.58,1.5-.55,48.05-17.67,59.57-21.98-.1,7.74-.02,15.59-.03,23.33,0,0-53.44,6.33-60.72,7.04,1.25,2.22,2.05,3.02,4.09,4.55,1.79,1.14,2.72,1.69,4.66,2.56,6.88,2.95,14.36,4.54,21.78,5.46,3.83,.47,8.06,.35,11.95,.35h63.16c.46-1.94,.96-3.97,1.31-5.91l.53-2.47c3.63-18.61,3.7-34.98,1.56-53.66Z"/>
    <path class="cls-5" d="M114,41.8l10.32,1.91s4.58,.88,6.01,2.74c.91,1.19,1.61,3.85,1.61,3.85l-15.02-2.03,1.84,8.89,15.13,1.48s1.75,.01,2.09,1.9c.25,1.38,.12,4.16,.11,5.59-.14,.08-.33,.18-.43,.26-.56,.41-1.41,1.27-1.71,2.17,0,0,0,0,0,.01l2.12-.11c.05,1.36,.41,3.08-1.42,3.14-2.14,.06-19.57-.04-19.57-.04-.26-8.88-11.97-6.61-11.97-6.61l.86-20.77,10.04-2.36Z"/>
    <path class="cls-3" d="M123.37,65.2l9.54,.6-.71,2.72-7.69-.22-1.14-3.1Z"/>
    <path class="cls-3" d="M122.01,60.97l11.97,1.14-.58,1.96-10.76-.71-.63-2.39Z"/>
    <path class="cls-3" d="M118.18,65.49c1.72,.21,3.73,.87,4.19,2.78-1.13,.03-2.85-.1-4.02-.16l-.17-2.62Z"/>
    <path class="cls-5" d="M76.53,25.61c4.63-1.59,13.97-5.43,13.97-5.43,0,0,9.55-4.3,16.31-2.53-.7,.25-3.5,1.3-4.03,1.31-4.99,.16-8.6,1.98-13.23,3.76-4.3,1.63-8.58,3.3-12.85,5.01-2.01-.64-22.1-7.08-26.06-7.99-.79-.18-2.54,.43-3.3,.7l17.74,11.9c-2.3,.84-26.72,9.99-29.05,10.83l-1.96,.72-8.44-11.84c1.87-.41,4.73-1.41,6.59-1.23,1.2,.12,10.57,6.06,12.4,7.12,1.43-.46,12.38-4.73,16.2-6.12l-17.66-11.77c1.51-.54,5.82-2.54,7.01-2.37,3.44,.48,26.37,7.92,26.37,7.92Z"/>
    <path class="cls-3" d="M29.02,33.32c1.07-.24,1.83-.43,2.93-.54,4.15,2.22,12.48,7.31,12.48,7.31l-8.4,3.09s-6.74-9.43-7.01-9.86Z"/>
    <path class="cls-5" d="M105.84,67.05c-.76,1.91-.77,4.51-.77,4.51l-12.2-.08s-.44-2.11-.99-3.27c4.11-.22,13.96-1.16,13.96-1.16Z"/>
    <path class="cls-5" d="M110.65,67.6c2.01,.76,2.52,4.02,.87,5.61-.55,.53-1.38,.69-2.11,.45-2.35-.78-2.6-4.11-1.04-5.6,.61-.58,1.48-.76,2.27-.46Z"/>
    <path class="cls-5" d="M88.98,68.53c1.71,.65,2.14,3.42,.74,4.77-.47,.45-1.17,.59-1.79,.38-2-.66-2.21-3.5-.89-4.77,.52-.5,1.26-.65,1.93-.39Z"/>
    <path class="cls-1" d="M54.83,30.02l1.69,1.35-9.76,2.1,8.08-3.44Z"/>
    <polygon class="cls-1" points="51.23 27.4 39.72 32.05 53.21 29.03 51.23 27.4"/>
    <path class="cls-3" d="M109.23,24.01c-3.04,1.28-6.23,2.36-9.33,3.47l-14.9,5.38c-9.91,3.58-21.33,8.04-31.31,10.84-2.36,.65-5.01,1.36-7.41,1.82,2.07,.09,6.26-.57,8.39-.87,4.36-.65,9.2-1.62,13.45-2.82,2.31-.65,5.3-1.78,7.61-2.59l13.99-5,10.29-3.68c4.75-1.71,11.69-3.71,13.71-8.83-1.49,.75-2.93,1.63-4.49,2.29Z"/>
    <path class="cls-3" d="M50.76,65.62c1.63-.08,40-5.66,40-5.66v-3.82s-35.96,8.41-40,9.48Z"/>
    <path class="cls-3" d="M96.11,46.88s-32.94,11.76-34.75,12.42c-.76,.27-2.29,.86-3.02,1.05l37.68-9.03,.09-4.44Z"/>
  </g>
  <path class="cls-2" d="M128.85,123.68c-1.13,1.02-4.05,3.78-5.22,4.75-14.09,11.87-32.45,19.54-50.99,18.54-1.25-.07-2.49-.26-3.71-.53h0c2.14,.07,5.54-.3,7.67-.58,12.1-1.45,24.32-6.96,33.97-14.41l-.93,.52c-1.95,1.1-4.82,2.38-6.89,3.25-12.18,5.16-25.43,7.26-38.6,6.13-2.34-.21-4.67-.53-6.98-.97-.9-.18-7.63-1.86-8.21-2.04-7.09-2.24-13.75-5.68-19.69-10.16l-2.21-1.77c-.4-.44-.98-.88-1.45-1.26,.42,.57,.81,1.11,1.27,1.66l2.02,2.72c4.91,6.49,10.48,12.44,16.63,17.76,.65,.57,2.96,2.61,3.63,2.96l.05,.04c.83,.83,3.33,2.66,4.38,3.44,7.23,5.34,14.98,9.93,23.14,13.69,2.86-1.26,6.32-3.11,9.06-4.64,15.14-8.35,28.38-19.73,38.9-33.45l4.15-5.66Z"/>
</svg>