<?xml version="1.0" encoding="UTF-8"?>
<svg xmlns="http://www.w3.org/2000/svg" viewBox="0 0 175.68 183.28">
  <defs>
    <style>
      .cls-1 {
        fill: #fff;
      }

      .cls-2 {
        fill: #dd0500;
      }

      .cls-3 {
        fill: #001c82;
      }

      .cls-4 {
        fill: #fefefd;
      }
    </style>
  </defs>
  <g id="_Шар_1" data-name="Шар 1">
    <g>
      <path class="cls-3" d="M165.92,84.9s1.57-8.55,1.9-10.89c2.74-19.04,2.33-35.07-.49-54.1C164.2,19.06,97.21,2.37,88,.08v-.08s-.11,.03-.16,.04c-.05-.01-.11-.03-.16-.04V.08C78.47,2.37,11.48,19.06,8.35,19.91c-2.83,19.03-3.23,35.07-.49,54.1,.33,2.33,1.9,10.89,1.9,10.89,0,0-6.95,.43-9.76,.43l.03,44.24c.23,.22,.09,.14,.44,.21,1.43,.38,28.14,4.48,28.14,4.48,13.66,21.4,35.83,38.85,59.07,48.87v.14c.05-.02,.11-.05,.16-.07,.05,.02,.11,.05,.16,.07v-.14c23.24-10.02,45.41-27.47,59.07-48.87,0,0,26.72-4.1,28.14-4.48,.34-.06,.21,.02,.44-.21l.03-44.24c-2.8,0-9.76-.43-9.76-.43Z"/>
      <path class="cls-1" d="M88,4.89l75.19,18.98c3.15,21.33,2.33,43.93-2.92,64.89h12.32c-.21,12.38-.02,25.44,0,37.86l-26.28-.02c-13.51,23.19-34.17,40.09-58.27,51.22-24.79-11.66-44.14-27.46-58.32-51.22-8.48,.19-17.76,.02-26.3,0l-.02-37.84c4.06,.05,8.26,0,12.32,0-5.15-21.48-6-43.02-2.94-64.83L88,4.89Z"/>
      <path class="cls-3" d="M160.1,26.73c-2.84-.61-72.1-18.18-72.1-18.18L15.95,26.79c-2.32,17.55-1.85,35.36,1.37,52.76,6.12-10.84,18.9-17.5,29.86-22.4,1.38-.61,2.79-1.16,4.19-1.74,.73-.31,1.47-.6,2.22-.87,1.67-.6,6.02-2.2,6.02-2.2,0,0-7.92,.49-11.81,.82-1.3,.11-3.43-.88-3.28-2.17,0,0,0-.02,0-.02,0,0,44.46-17.04,53.28-20.38,3.88-1.47,10.31-4.2,14.03-4.96,.72,.28,1.54,.54,2.28,.79,3.45-.99,7.24-3.31,10.97-1.96,1.68,.61,2.45,2.24,1.57,3.85-2.98,5.44-10.8,7.7-16.26,9.63-2.66,.93-5.3,1.89-7.94,2.87l-3.42,6.13-2.76,.95c.67-1.22,3.39-6.12,3.39-6.12-2.52,.9-9.23,3.32-9.23,3.32-.19,1.69-.42,3.46-.53,5.15l-2.1,.84c.14-1.73,.29-3.47,.47-5.2-10.28,3.57-21.11,8.45-29.8,15.08-.6,.46-2.85,2.41-3.25,2.91-1.16,1.46-1.91,2.03-2.96,3.58,1.5-.55,48.05-17.67,59.57-21.98-.1,7.74-.02,15.59-.03,23.33,0,0-53.44,6.33-60.72,7.04,1.25,2.22,2.05,3.02,4.09,4.55,1.79,1.14,2.72,1.69,4.66,2.56,6.88,2.95,14.36,4.54,21.78,5.46,3.83,.47,8.06,.35,11.95,.35h63.16c.46-1.94,.96-3.97,1.31-5.91l.53-2.47c3.63-18.61,3.7-34.98,1.56-53.66Z"/>
      <path class="cls-2" d="M158.54,80.38l-.53,2.47c-7.71-.14-89.45,.1-98.2,.1-1.94-.86-2.87-1.41-4.66-2.56,2.5-.1,100.29,.09,103.39-.02Z"/>
      <path class="cls-4" d="M125.4,46.69l10.32,1.91s4.58,.88,6.01,2.74c.91,1.19,1.61,3.85,1.61,3.85l-15.02-2.03,1.84,8.89,15.13,1.48s1.75,.01,2.09,1.9c.25,1.38,.12,4.16,.11,5.59-.14,.08-.33,.18-.43,.26-.56,.41-1.41,1.27-1.71,2.17,0,0,0,0,0,.01l2.12-.11c.05,1.36,.41,3.08-1.42,3.14-2.14,.06-19.57-.04-19.57-.04-.26-8.88-11.97-6.61-11.97-6.61l.86-20.77,10.04-2.36Z"/>
      <path class="cls-3" d="M134.78,70.09l9.54,.6-.71,2.72-7.69-.22-1.14-3.1Z"/>
      <path class="cls-3" d="M133.42,65.85l11.97,1.14-.58,1.96-10.76-.71-.63-2.39Z"/>
      <path class="cls-3" d="M129.58,70.37c1.72,.21,3.73,.87,4.19,2.78-1.13,.03-2.85-.1-4.02-.16l-.17-2.62Z"/>
      <path class="cls-4" d="M87.94,30.5c4.63-1.59,13.97-5.43,13.97-5.43,0,0,9.55-4.3,16.31-2.53-.7,.25-3.5,1.3-4.03,1.31-4.99,.16-8.6,1.98-13.23,3.76-4.3,1.63-8.58,3.3-12.85,5.01-2.01-.64-22.1-7.08-26.06-7.99-.79-.18-2.54,.43-3.3,.7l17.74,11.9c-2.3,.84-26.72,9.99-29.05,10.83l-1.96,.72-8.44-11.84c1.87-.41,4.73-1.41,6.59-1.23,1.2,.12,10.57,6.06,12.4,7.12,1.43-.46,12.38-4.73,16.2-6.12l-17.66-11.77c1.51-.54,5.82-2.54,7.01-2.37,3.44,.48,26.37,7.92,26.37,7.92Z"/>
      <path class="cls-2" d="M40.43,38.21c1.07-.24,1.83-.43,2.93-.54,4.15,2.22,12.48,7.31,12.48,7.31l-8.4,3.09s-6.74-9.43-7.01-9.86Z"/>
      <path class="cls-4" d="M117.24,71.94c-.76,1.91-.77,4.51-.77,4.51l-12.2-.08s-.44-2.11-.99-3.27c4.11-.22,13.96-1.16,13.96-1.16Z"/>
      <path class="cls-4" d="M122.06,72.49c2.01,.76,2.52,4.02,.87,5.61-.55,.53-1.38,.69-2.11,.45-2.35-.78-2.6-4.11-1.04-5.6,.61-.58,1.48-.76,2.27-.46Z"/>
      <path class="cls-4" d="M100.39,73.41c1.71,.65,2.14,3.42,.74,4.77-.47,.45-1.17,.59-1.79,.38-2-.66-2.21-3.5-.89-4.77,.52-.5,1.26-.65,1.93-.39Z"/>
      <path class="cls-2" d="M66.24,34.91l1.69,1.35-9.76,2.1,8.08-3.44Z"/>
      <polygon class="cls-2" points="62.64 32.29 51.13 36.94 64.62 33.92 62.64 32.29"/>
      <path class="cls-2" d="M120.64,28.9c-3.04,1.28-6.23,2.36-9.33,3.47l-14.9,5.38c-9.91,3.58-21.33,8.04-31.31,10.84-2.36,.65-5.01,1.36-7.41,1.82,2.07,.09,6.26-.57,8.39-.87,4.36-.65,9.2-1.62,13.45-2.82,2.31-.65,5.3-1.78,7.61-2.59l13.99-5,10.29-3.68c4.75-1.71,11.69-3.71,13.71-8.83-1.49,.75-2.93,1.63-4.49,2.29Z"/>
      <path class="cls-2" d="M62.17,70.51c1.63-.08,40-5.66,40-5.66v-3.82s-35.96,8.41-40,9.48Z"/>
      <path class="cls-2" d="M107.52,51.76s-32.94,11.76-34.75,12.42c-.76,.27-2.29,.86-3.02,1.05l37.68-9.03,.09-4.44Z"/>
      <path class="cls-2" d="M68.94,88.27c-25.56-6.37-27.47-20.26-5.05-33.53,1.84-1.09,3.71-2.15,5.6-3.15-2.21,.69-4.39,1.57-6.54,2.44-10.13,4.15-23.51,10.98-28.38,21.48-2.17,4.68-.71,10.27,3.58,13.27h30.61l2.3,.04s-2.03-.52-2.13-.54Z"/>
      <path class="cls-2" d="M140.16,130.07c-1.13,1.02-4.05,3.78-5.22,4.75-14.09,11.87-32.45,19.54-50.99,18.54-1.25-.07-2.49-.26-3.71-.53h0c2.14,.07,5.54-.3,7.67-.58,12.1-1.45,24.32-6.96,33.97-14.41l-.93,.52c-1.95,1.1-4.82,2.38-6.89,3.25-12.18,5.16-25.43,7.26-38.6,6.13-2.34-.21-4.67-.53-6.98-.97-.9-.18-7.63-1.86-8.21-2.04-7.09-2.24-13.75-5.68-19.69-10.16l-2.21-1.77c-.4-.44-.98-.88-1.45-1.26,.42,.57,.81,1.11,1.27,1.66l2.02,2.72c4.91,6.49,10.48,12.44,16.63,17.76,.65,.57,2.96,2.61,3.63,2.96l.05,.04c.83,.83,3.33,2.66,4.38,3.44,7.23,5.34,14.98,9.93,23.14,13.69,2.86-1.26,6.32-3.11,9.06-4.64,15.14-8.35,28.38-19.73,38.9-33.45l4.15-5.66Z"/>
    </g>
  </g>
  <g id="_Шар_2" data-name="Шар 2">
    <g>
      <path class="cls-3" d="M28.81,97.57l2.17,7.61-3.38,.86c-1.12-1.82-2.39-3.14-3.81-3.99s-2.93-1.26-4.53-1.26c-1.03,0-1.85,.19-2.44,.57-.6,.38-.89,.8-.89,1.27,0,.53,.27,1.03,.81,1.48,.53,.46,1.51,.86,2.93,1.22l4.84,1.27c2.69,.69,4.6,1.62,5.75,2.77,1.13,1.16,1.7,2.51,1.7,4.05,0,1.96-.87,3.62-2.6,4.98-1.94,1.5-4.35,2.25-7.23,2.25-1.34,0-2.57-.15-3.69-.46-1.12-.31-2.29-.83-3.5-1.55l-.79,1.63h-2.69l-1.79-8.8,3.38-.73c.79,1.79,2.03,3.28,3.71,4.48,1.68,1.2,3.53,1.8,5.54,1.8,.9,0,1.65-.1,2.25-.31,.6-.21,1.04-.49,1.35-.86,.3-.37,.45-.75,.45-1.14,0-.65-.35-1.21-1.05-1.67-.71-.47-1.95-.93-3.72-1.38l-4.21-1.1c-.64-.16-1.5-.47-2.59-.92-1.09-.45-1.93-.92-2.51-1.41-.58-.49-1.07-1.11-1.45-1.88-.39-.76-.58-1.57-.58-2.42,0-1.2,.37-2.31,1.11-3.33,.74-1.01,1.85-1.83,3.34-2.46,1.49-.63,3.13-.94,4.94-.94,2.18,0,4.15,.51,5.91,1.53l.7-1.14h2.58Z"/>
      <path class="cls-3" d="M34.3,97.57h13.33c1.69,0,3.09,.16,4.2,.46,1.11,.31,2.07,.78,2.87,1.41,.8,.63,1.42,1.37,1.85,2.24,.43,.86,.65,1.77,.65,2.74,0,1.94-.83,3.57-2.48,4.88-1.66,1.31-3.94,1.97-6.86,1.97h-4.3v4.24c0,.53,.04,.87,.13,1.01,.11,.21,.27,.36,.5,.46,.22,.1,.6,.15,1.13,.15h1.28v3.14h-12.3v-3.14h.85c.75,0,1.25-.05,1.49-.15s.42-.25,.53-.46c.11-.21,.16-.65,.16-1.31v-12.47c0-.69-.05-1.15-.15-1.37-.1-.22-.25-.38-.46-.49-.21-.1-.62-.15-1.21-.15h-1.22v-3.14Zm9.27,3.71v6.44h2.15c1.31,0,2.28-.12,2.89-.37,.61-.24,1.11-.62,1.48-1.12,.37-.5,.56-1.1,.56-1.8,0-1.04-.45-1.86-1.34-2.47-.66-.46-1.64-.68-2.94-.68h-2.8Z"/>
      <path class="cls-3" d="M67.79,97.57h5.66l7.56,17.51c.41,.93,.77,1.51,1.09,1.72,.32,.22,.91,.32,1.76,.31v3.14h-11.92v-3.14l.72-.02c.66,0,1.13-.08,1.39-.24,.26-.16,.4-.35,.4-.58,0-.2-.11-.6-.34-1.2l-.75-2.06h-7.66l-.94,2.29c-.19,.49-.29,.81-.29,.96,0,.17,.07,.33,.21,.47s.36,.24,.68,.31c.21,.04,.77,.07,1.7,.07v3.14h-9.76v-3.14c.63,0,1.08-.05,1.37-.15s.53-.24,.71-.44c.19-.19,.39-.56,.62-1.09l7.79-17.87Zm-.76,12.21h5l-2.44-6.23-2.57,6.23Z"/>
      <path class="cls-3" d="M83.93,97.57h12.52v3.14h-.94c-.66,0-1.08,.05-1.25,.14-.17,.09-.25,.24-.25,.45,0,.28,.19,.7,.58,1.27l3.31,4.92,3.68-5.13c.32-.44,.5-.69,.54-.75,.05-.12,.07-.24,.07-.36,0-.18-.07-.32-.21-.41s-.46-.13-.97-.13h-1.28v-3.14h10.04v3.14c-.88,.01-1.5,.1-1.85,.28-.36,.17-.78,.59-1.27,1.25l-6.72,8.81v4.05c0,.72,.05,1.18,.15,1.39,.1,.21,.28,.37,.53,.47,.25,.1,.74,.15,1.46,.15h.89v3.14h-12.3v-3.14h.67c.87,0,1.42-.05,1.66-.15,.24-.1,.42-.28,.55-.52,.13-.24,.19-.73,.19-1.47v-3.54l-6.7-9.19c-.53-.72-.99-1.17-1.39-1.35-.29-.12-.86-.18-1.72-.18v-3.14Z"/>
      <path class="cls-3" d="M111.17,97.57h12.3v3.14h-.81c-.78,0-1.27,.04-1.45,.11-.29,.12-.5,.29-.62,.5-.13,.22-.19,.62-.19,1.22v6.04l7.86-6.56c.35-.29,.56-.49,.63-.59,.07-.1,.11-.19,.11-.27,0-.15-.07-.27-.21-.34-.14-.08-.49-.11-1.06-.11h-1.01v-3.14h11.4v3.14h-.38c-.53,0-.9,.02-1.1,.07-.2,.05-.45,.15-.75,.32-.3,.16-.68,.43-1.15,.8l-6.09,4.75,7.26,8.83c.63,.76,1.08,1.21,1.37,1.35,.39,.2,.94,.29,1.66,.29h.49v3.14h-12.72v-3.14h.51c.93,0,1.49-.04,1.69-.11,.2-.08,.3-.17,.3-.29,0-.13-.19-.44-.56-.93l-4.44-5.69-3.82,2.98v2.28c0,.56,.06,.95,.18,1.17s.29,.37,.51,.46,.67,.14,1.35,.14h1.03v3.14h-12.3v-3.14h.93c.71,0,1.19-.05,1.44-.15,.24-.1,.42-.27,.53-.5,.1-.18,.15-.63,.15-1.33v-12.39c0-.67-.06-1.12-.16-1.35-.11-.23-.29-.4-.53-.51-.24-.11-.68-.17-1.31-.17h-1.04v-3.14Z"/>
      <path class="cls-3" d="M149.94,97.57h5.66l7.56,17.51c.41,.93,.77,1.51,1.09,1.72,.32,.22,.91,.32,1.76,.31v3.14h-11.92v-3.14l.72-.02c.66,0,1.13-.08,1.39-.24,.26-.16,.4-.35,.4-.58,0-.2-.11-.6-.34-1.2l-.75-2.06h-7.66l-.94,2.29c-.19,.49-.29,.81-.29,.96,0,.17,.07,.33,.21,.47s.36,.24,.68,.31c.21,.04,.77,.07,1.7,.07v3.14h-9.76v-3.14c.63,0,1.08-.05,1.37-.15s.53-.24,.71-.44c.19-.19,.39-.56,.62-1.09l7.79-17.87Zm-.76,12.21h5l-2.44-6.23-2.57,6.23Z"/>
    </g>
    <g>
      <path class="cls-3" d="M70.53,126.96h.53l1.4,3.77c.07,.19,.14,.31,.21,.38,.07,.06,.16,.09,.28,.09h.07v.27h-1.6v-.27c.05,0,.1,0,.15,0,.1,0,.17-.01,.2-.03,.06-.04,.09-.09,.09-.16,0-.04-.03-.16-.09-.33l-.3-.87h-1.63l-.35,.98c-.04,.1-.05,.17-.05,.21,0,.04,.01,.08,.03,.11s.05,.06,.09,.07c.04,.02,.1,.02,.19,.02,.06,0,.11,0,.14,0v.27h-1.35v-.27c.12,0,.21-.01,.27-.04s.1-.06,.14-.12c.04-.05,.09-.17,.16-.35l1.41-3.73Zm-.57,2.52h1.39l-.69-1.94-.7,1.94Z"/>
      <path class="cls-3" d="M73.31,126.96h1.73v.27h-.13c-.12,0-.22,.02-.27,.05-.06,.03-.1,.08-.12,.15-.03,.06-.04,.19-.04,.37v2.9c0,.15,.01,.25,.04,.31,.03,.06,.07,.11,.12,.13,.05,.03,.14,.04,.27,.04h.13v.27h-1.73v-.27h.14c.13,0,.22-.01,.27-.04s.09-.07,.11-.13c.02-.05,.04-.16,.04-.32v-2.97c0-.17-.01-.28-.04-.34-.02-.06-.06-.1-.11-.13s-.14-.04-.27-.04h-.14v-.27Z"/>
      <path class="cls-3" d="M75.61,126.96h2.33c.44,0,.78,.05,1,.14s.4,.22,.52,.4c.12,.17,.18,.37,.18,.6s-.06,.44-.18,.62-.29,.33-.51,.43-.52,.16-.89,.16l1.19,1.45c.1,.12,.16,.2,.19,.22,.08,.07,.15,.12,.24,.15,.08,.03,.18,.05,.28,.05h.08v.27h-1.03l-1.66-2.15h-.58v1.39c0,.16,0,.25,.02,.29,.02,.07,.06,.12,.11,.16,.05,.03,.16,.04,.31,.04h.12v.27h-1.73v-.27h.15c.12,0,.19,0,.23-.02,.04-.02,.08-.04,.11-.08,.03-.04,.05-.09,.07-.14,0-.02,0-.13,0-.33v-2.95c0-.13-.01-.22-.04-.28-.03-.06-.06-.1-.11-.12s-.13-.04-.24-.04h-.18v-.27Zm1.17,.35v1.7h.93c.31,0,.54-.02,.66-.06,.18-.05,.32-.15,.43-.28s.16-.31,.16-.53c0-.18-.04-.33-.11-.46-.08-.12-.18-.22-.31-.28s-.33-.09-.58-.09h-1.17Z"/>
      <path class="cls-3" d="M86.08,126.96h.23l.41,1.5-.3,.08c-.16-.35-.28-.58-.37-.7-.14-.19-.31-.34-.52-.46-.21-.11-.43-.17-.68-.17-.29,0-.56,.08-.8,.23-.24,.16-.44,.38-.59,.69s-.23,.64-.23,1.02,.08,.73,.23,1.04c.15,.3,.36,.54,.62,.7s.55,.25,.85,.25c.29,0,.58-.08,.88-.25,.3-.16,.56-.39,.78-.69l.26,.18c-.13,.2-.28,.37-.43,.5-.25,.22-.5,.39-.77,.49-.27,.11-.56,.16-.87,.16-.7,0-1.27-.26-1.71-.78-.36-.43-.54-.94-.54-1.54,0-.44,.1-.83,.3-1.19,.2-.35,.48-.64,.83-.84,.35-.21,.73-.31,1.14-.31,.22,0,.42,.03,.61,.09,.19,.06,.38,.15,.57,.29l.1-.3Z"/>
      <path class="cls-3" d="M89.06,126.96h.53l1.4,3.77c.07,.19,.14,.31,.21,.38,.07,.06,.16,.09,.28,.09h.07v.27h-1.6v-.27c.05,0,.1,0,.15,0,.1,0,.17-.01,.2-.03,.06-.04,.09-.09,.09-.16,0-.04-.03-.16-.09-.33l-.3-.87h-1.63l-.35,.98c-.04,.1-.05,.17-.05,.21,0,.04,.01,.08,.03,.11s.05,.06,.09,.07c.04,.02,.1,.02,.19,.02,.06,0,.11,0,.14,0v.27h-1.35v-.27c.12,0,.21-.01,.27-.04s.1-.06,.14-.12c.04-.05,.09-.17,.16-.35l1.41-3.73Zm-.57,2.52h1.39l-.69-1.94-.7,1.94Z"/>
      <path class="cls-3" d="M91.89,126.96h2.33c.44,0,.78,.05,1,.14,.23,.09,.4,.22,.52,.4,.12,.17,.18,.37,.18,.6s-.06,.44-.18,.62c-.12,.18-.29,.33-.51,.43-.22,.1-.52,.16-.89,.16l1.19,1.45c.1,.12,.16,.2,.19,.22,.08,.07,.15,.12,.24,.15s.18,.05,.28,.05h.08v.27h-1.03l-1.66-2.15h-.58v1.39c0,.16,0,.25,.02,.29,.02,.07,.06,.12,.12,.16,.05,.03,.16,.04,.31,.04h.12v.27h-1.73v-.27h.16c.12,0,.19,0,.23-.02,.04-.02,.08-.04,.11-.08,.03-.04,.05-.09,.07-.14,0-.02,0-.13,0-.33v-2.95c0-.13-.01-.22-.04-.28-.03-.06-.06-.1-.11-.12-.05-.03-.13-.04-.24-.04h-.18v-.27Zm1.17,.35v1.7h.93c.31,0,.54-.02,.66-.06,.18-.05,.32-.15,.43-.28s.16-.31,.16-.53c0-.18-.04-.33-.11-.46-.08-.12-.18-.22-.31-.28s-.33-.09-.58-.09h-1.17Z"/>
      <path class="cls-3" d="M100.2,126.96h.24l.37,1.39-.29,.1c-.19-.44-.42-.75-.67-.94s-.54-.28-.86-.28c-.46,0-.84,.19-1.15,.57-.31,.38-.47,.84-.47,1.36,0,.38,.08,.73,.24,1.04s.37,.56,.64,.72c.26,.17,.55,.25,.84,.25,.19,0,.37-.03,.55-.1s.31-.15,.42-.25c.08-.07,.13-.15,.16-.24,.03-.09,.04-.21,.04-.37v-.21c0-.17-.02-.29-.06-.36-.04-.07-.1-.12-.17-.15-.06-.02-.21-.04-.45-.04v-.27h1.83v.27h-.15c-.13,0-.21,.01-.26,.04-.05,.02-.08,.06-.1,.11s-.03,.15-.03,.3v1.56h-.32l-.17-.39c-.18,.13-.37,.23-.58,.31-.31,.11-.61,.17-.91,.17-.6,0-1.12-.22-1.55-.67s-.65-1-.65-1.66,.22-1.21,.66-1.66,.96-.67,1.57-.67c.15,0,.3,.02,.45,.04,.15,.03,.28,.07,.41,.13,.09,.04,.2,.11,.32,.2l.11-.3Z"/>
      <path class="cls-3" d="M104.33,126.88c.41,0,.78,.1,1.12,.3,.36,.21,.64,.49,.83,.83,.19,.34,.29,.73,.29,1.18,0,.69-.22,1.26-.65,1.7-.43,.44-.98,.66-1.65,.66-.75,0-1.34-.26-1.77-.79-.36-.43-.53-.94-.53-1.54,0-.44,.1-.84,.3-1.19,.2-.35,.49-.63,.85-.83,.37-.2,.77-.31,1.21-.31Zm0,.35c-.34,0-.63,.08-.87,.23-.24,.15-.44,.38-.58,.68-.15,.3-.22,.67-.22,1.11s.07,.78,.21,1.07c.14,.29,.34,.51,.58,.67,.24,.16,.51,.23,.82,.23s.57-.08,.8-.23c.23-.15,.42-.39,.57-.72,.15-.33,.23-.69,.23-1.09s-.08-.78-.23-1.11c-.13-.29-.3-.5-.51-.64-.21-.14-.48-.21-.8-.21Z"/>
    </g>
    <g>
      <path class="cls-3" d="M71.01,134.9h.23l.35,1.39-.3,.09c-.19-.39-.44-.7-.75-.92-.26-.19-.54-.28-.86-.28-.19,0-.36,.03-.51,.1s-.26,.16-.34,.26-.11,.22-.11,.33c0,.1,.03,.2,.09,.29,.06,.09,.15,.18,.27,.25,.12,.07,.31,.15,.58,.23l.84,.25c.1,.03,.25,.09,.45,.17,.2,.09,.35,.18,.46,.27s.2,.21,.26,.35c.06,.14,.09,.29,.09,.45,0,.36-.16,.67-.47,.94-.31,.27-.72,.4-1.22,.4-.26,0-.49-.04-.69-.11-.2-.07-.42-.21-.66-.4l-.15,.43h-.23l-.3-1.62,.3-.06c.11,.3,.26,.55,.44,.76s.38,.37,.6,.47,.45,.16,.67,.16c.31,0,.58-.09,.81-.28,.19-.16,.29-.34,.29-.56,0-.2-.07-.36-.21-.48-.14-.12-.4-.24-.76-.35l-.81-.23c-.45-.13-.77-.3-.96-.5-.19-.21-.28-.44-.28-.7,0-.21,.06-.4,.18-.57,.12-.17,.31-.32,.56-.44,.25-.12,.52-.18,.82-.18,.25,0,.49,.04,.72,.13,.16,.06,.31,.15,.45,.26l.14-.31Z"/>
      <path class="cls-3" d="M74.74,134.82c.41,0,.78,.1,1.12,.3,.36,.21,.64,.49,.83,.83,.19,.34,.29,.73,.29,1.18,0,.69-.22,1.26-.65,1.7-.43,.44-.98,.66-1.65,.66-.75,0-1.34-.26-1.77-.79-.36-.43-.53-.94-.53-1.54,0-.44,.1-.84,.3-1.19,.2-.35,.48-.63,.85-.83,.37-.2,.77-.31,1.21-.31Zm0,.35c-.34,0-.63,.08-.87,.23-.24,.15-.44,.38-.58,.68-.15,.3-.22,.67-.22,1.11s.07,.78,.22,1.07,.34,.51,.58,.67,.51,.23,.82,.23,.57-.08,.8-.23c.23-.15,.42-.39,.57-.72,.15-.33,.23-.69,.23-1.09s-.08-.78-.23-1.11c-.13-.29-.3-.5-.51-.64-.21-.14-.48-.21-.8-.21Z"/>
      <path class="cls-3" d="M77.62,134.9h1.75v.27h-.16c-.12,0-.21,.01-.26,.04-.05,.02-.09,.06-.11,.1-.02,.04-.04,.13-.04,.24v3.14c0,.14,0,.23,.02,.26,.01,.04,.04,.07,.08,.08,.03,.01,.12,.02,.26,.02h.24c.28,0,.52-.04,.72-.12,.2-.08,.38-.2,.53-.35,.15-.15,.29-.38,.43-.69l.29,.1-.5,1.41h-3.24v-.27h.14c.14,0,.23-.01,.28-.04,.05-.02,.08-.06,.11-.12s.04-.15,.04-.28v-3.07c0-.16-.01-.26-.04-.31-.02-.05-.06-.09-.1-.11-.05-.02-.14-.03-.29-.03h-.14v-.27Z"/>
      <path class="cls-3" d="M81.54,134.9h1.74v.27h-.12c-.14,0-.24,.01-.3,.04-.05,.02-.08,.06-.11,.11-.02,.05-.04,.16-.04,.31v2.03c0,.36,.04,.63,.13,.8,.09,.17,.23,.32,.44,.44,.2,.12,.43,.18,.67,.18s.48-.06,.7-.19c.22-.13,.37-.28,.46-.45s.13-.45,.13-.83v-1.95c0-.14-.01-.25-.04-.31-.03-.06-.07-.11-.13-.14s-.15-.05-.27-.05h-.13v-.27h1.51v.27h-.1c-.17,0-.29,.03-.35,.1-.06,.07-.1,.19-.1,.37v2.08c0,.38-.07,.7-.21,.95s-.35,.45-.62,.6c-.27,.15-.59,.22-.95,.22-.34,0-.65-.08-.93-.23-.28-.15-.49-.34-.62-.56-.13-.22-.2-.51-.2-.85v-2.21c0-.14-.01-.24-.04-.3-.03-.06-.06-.1-.11-.13-.05-.03-.14-.04-.26-.04h-.16v-.27Z"/>
      <path class="cls-3" d="M86.85,134.74h.23l.03,.15h2.77l.03-.15h.24l.47,1.32-.29,.1c-.14-.35-.31-.6-.5-.74-.19-.14-.44-.21-.74-.21-.12,0-.2,0-.22,.01-.02,0-.04,.03-.05,.05s-.01,.1-.01,.23v3.13c0,.15,0,.25,.02,.3s.04,.09,.07,.12c.03,.03,.07,.05,.12,.06,.05,.01,.17,.02,.35,.02v.27h-1.74v-.27c.19,0,.31,0,.35-.02,.08-.02,.13-.06,.16-.12,.03-.06,.05-.17,.05-.33v-3.19c0-.1,0-.16-.01-.18s-.03-.04-.05-.05-.08-.02-.17-.02c-.23,0-.42,.03-.56,.09-.14,.06-.27,.16-.4,.31-.12,.14-.23,.33-.32,.56l-.29-.1,.47-1.32Z"/>
      <path class="cls-3" d="M90.81,134.9h1.73v.27h-.13c-.12,0-.22,.02-.27,.05-.06,.03-.1,.08-.12,.15-.03,.06-.04,.19-.04,.37v2.9c0,.15,.01,.25,.04,.31,.03,.06,.07,.11,.12,.13,.05,.03,.14,.04,.27,.04h.13v.27h-1.73v-.27h.14c.13,0,.22-.01,.27-.04s.09-.07,.11-.13c.02-.05,.04-.16,.04-.32v-2.97c0-.17-.01-.28-.04-.34-.02-.06-.06-.1-.11-.13s-.14-.04-.27-.04h-.14v-.27Z"/>
      <path class="cls-3" d="M95.51,134.82c.41,0,.78,.1,1.12,.3,.36,.21,.64,.49,.83,.83,.19,.34,.29,.73,.29,1.18,0,.69-.22,1.26-.65,1.7-.43,.44-.98,.66-1.65,.66-.75,0-1.34-.26-1.77-.79-.36-.43-.53-.94-.53-1.54,0-.44,.1-.84,.3-1.19,.2-.35,.48-.63,.85-.83,.37-.2,.77-.31,1.21-.31Zm0,.35c-.34,0-.63,.08-.87,.23-.24,.15-.44,.38-.58,.68-.15,.3-.22,.67-.22,1.11s.07,.78,.22,1.07,.34,.51,.58,.67,.51,.23,.82,.23,.57-.08,.8-.23c.23-.15,.42-.39,.57-.72,.15-.33,.23-.69,.23-1.09s-.08-.78-.23-1.11c-.13-.29-.3-.5-.51-.64-.21-.14-.48-.21-.8-.21Z"/>
      <path class="cls-3" d="M98.38,134.9h1.38l2.05,3.38v-2.57c0-.15-.01-.26-.04-.33s-.08-.12-.14-.15c-.06-.04-.15-.05-.27-.05h-.12v-.27h1.51v.27h-.08c-.13,0-.22,.01-.27,.03-.07,.03-.12,.08-.15,.17s-.05,.19-.05,.34v3.7h-.39l-2.47-4.06v3.22c0,.18,0,.29,.02,.33,.02,.05,.04,.09,.08,.13,.04,.04,.09,.07,.14,.08,.05,.02,.16,.02,.33,.03v.27h-1.53v-.27h.08c.16,0,.26-.02,.32-.04,.05-.03,.1-.08,.13-.16s.05-.2,.05-.37v-2.86c0-.18,0-.29-.01-.33-.02-.07-.06-.13-.11-.16-.05-.03-.16-.05-.33-.05h-.12v-.27Z"/>
      <path class="cls-3" d="M106.33,134.9h.23l.34,1.39-.3,.09c-.19-.39-.44-.7-.75-.92-.26-.19-.54-.28-.86-.28-.19,0-.36,.03-.51,.1-.15,.07-.26,.16-.34,.26s-.11,.22-.11,.33c0,.1,.03,.2,.09,.29,.06,.09,.15,.18,.27,.25,.12,.07,.31,.15,.58,.23l.84,.25c.1,.03,.25,.09,.45,.17,.2,.09,.35,.18,.46,.27,.11,.1,.2,.21,.26,.35,.06,.14,.09,.29,.09,.45,0,.36-.16,.67-.47,.94s-.72,.4-1.22,.4c-.26,0-.49-.04-.69-.11-.2-.07-.42-.21-.66-.4l-.15,.43h-.23l-.3-1.62,.3-.06c.11,.3,.26,.55,.44,.76,.18,.21,.38,.37,.6,.47s.45,.16,.67,.16c.31,0,.58-.09,.81-.28,.19-.16,.29-.34,.29-.56,0-.2-.07-.36-.21-.48-.14-.12-.4-.24-.76-.35l-.81-.23c-.45-.13-.77-.3-.96-.5-.18-.21-.28-.44-.28-.7,0-.21,.06-.4,.18-.57,.12-.17,.31-.32,.56-.44s.52-.18,.82-.18c.25,0,.49,.04,.72,.13,.16,.06,.31,.15,.45,.26l.14-.31Z"/>
    </g>
  </g>
</svg>